<mxfile host="app.diagrams.net" modified="2023-05-04T08:32:41.288Z" agent="Mozilla/5.0 (Macintosh; Intel Mac OS X 10_15_7) AppleWebKit/537.36 (KHTML, like Gecko) Chrome/112.0.0.0 Safari/537.36" version="21.1.9" etag="-CFefqqQ5EC0ZZI_ppEV" type="github">
  <diagram name="第 1 页" id="IQd3VJ6llXnP5gVSyd0o">
    <mxGraphModel>
      <root>
        <mxCell id="0" />
        <mxCell id="1" parent="0" />
      </root>
    </mxGraphModel>
  </diagram>
</mxfile>
